<?xml version="1.0" standalone="no"?>
<!DOCTYPE svg PUBLIC "-//W3C//DTD SVG 20010904//EN"
 "http://www.w3.org/TR/2001/REC-SVG-20010904/DTD/svg10.dtd">
<svg version="1.0" xmlns="http://www.w3.org/2000/svg"
 width="512.000000pt" height="512.000000pt" viewBox="0 0 512.000000 512.000000"
 preserveAspectRatio="xMidYMid meet">
<metadata>
Created by potrace 1.16, written by Peter Selinger 2001-2019
</metadata>
<g transform="translate(0.000000,512.000000) scale(0.100000,-0.100000)"
fill="#000000" stroke="none">
<path d="M2974 4269 c-11 -19 11 -30 107 -50 336 -70 581 -199 805 -423 133
-134 203 -232 301 -420 48 -93 59 -122 51 -135 -8 -13 -5 -27 10 -57 46 -90
142 -443 142 -521 0 -35 22 -69 38 -59 41 25 -35 383 -123 586 -18 41 -47 111
-65 155 -45 109 -124 243 -207 350 -222 286 -547 481 -933 560 -41 8 -85 17
-97 20 -12 3 -25 0 -29 -6z"/>
<path d="M1942 4244 c-283 -83 -520 -225 -735 -439 -133 -133 -220 -255 -312
-440 -119 -240 -163 -395 -172 -611 l-6 -140 38 -84 c61 -136 49 -186 -81
-340 -55 -66 -66 -98 -38 -120 32 -27 34 -46 14 -94 l-21 -45 25 -60 c23 -54
25 -68 19 -153 -7 -105 5 -144 59 -198 41 -42 80 -49 283 -52 211 -3 215 -1
339 107 l74 65 66 0 c52 0 66 3 66 15 0 12 -16 15 -80 15 l-80 0 -70 -64 c-38
-36 -87 -70 -107 -77 -50 -16 -401 -6 -440 13 -56 28 -67 58 -74 196 -4 92
-10 137 -23 163 -17 33 -17 38 -2 67 21 41 20 74 -4 105 -11 14 -20 29 -20 35
0 5 26 42 59 81 120 148 138 217 87 340 -29 73 -32 125 -16 292 21 214 63 365
152 544 108 218 247 391 439 545 175 141 355 235 564 295 77 23 111 37 113 49
5 22 -16 20 -116 -10z"/>
<path d="M2454 4206 l-35 -35 3 -424 3 -424 28 -36 c28 -37 84 -74 95 -63 3 4
-11 21 -31 40 -20 18 -41 45 -47 60 -6 17 -10 176 -10 424 0 344 2 401 16 420
15 21 20 22 199 22 162 0 188 -2 217 -19 18 -10 56 -22 83 -26 85 -11 243 -54
339 -92 225 -88 361 -176 511 -327 101 -102 223 -262 240 -315 6 -20 25 -28
38 -15 10 11 -48 112 -117 204 -117 156 -282 300 -456 397 -129 73 -372 157
-530 183 -36 6 -78 21 -95 33 -28 21 -43 22 -223 25 l-193 3 -35 -35z"/>
<path d="M2115 4184 c-127 -23 -282 -71 -392 -124 -157 -74 -272 -158 -419
-305 -132 -131 -169 -180 -158 -210 4 -9 -2 -29 -15 -45 -31 -43 -5 -52 30
-10 21 25 27 40 22 61 -5 26 6 41 123 157 144 143 226 208 360 282 150 83 367
151 528 166 59 5 74 4 85 -10 11 -13 15 -98 19 -400 3 -211 2 -395 -2 -409 -3
-14 -31 -55 -61 -90 -31 -36 -60 -80 -65 -99 -6 -18 -10 -127 -10 -241 l0
-209 60 -62 c60 -63 60 -63 60 -124 0 -33 -3 -68 -6 -77 -6 -15 -62 -50 -70
-43 -2 2 -6 42 -10 88 -7 84 -8 85 -56 136 l-48 51 0 201 c0 173 -2 202 -15
202 -13 0 -15 -31 -15 -215 l0 -214 45 -38 c52 -43 68 -83 63 -158 l-3 -50
-35 3 c-49 5 -70 27 -70 73 0 30 -9 48 -40 84 l-40 46 0 213 c0 159 -3 216
-12 224 -17 13 -125 22 -266 22 l-113 0 3 53 3 52 174 2 c110 1 178 6 185 13
15 15 -7 46 -30 41 -11 -3 -93 -6 -184 -8 -197 -5 -200 -6 -200 -95 0 -55 -1
-58 -25 -58 -28 0 -65 32 -65 55 0 9 -11 27 -25 40 -19 20 -34 25 -76 25 -48
0 -55 -3 -91 -41 -21 -22 -51 -59 -66 -82 -27 -40 -27 -41 -27 -231 0 -163 2
-191 15 -191 13 0 16 31 20 196 l5 196 48 57 c74 86 123 86 167 0 21 -41 32
-51 70 -64 25 -8 46 -15 46 -15 1 0 4 -16 8 -36 6 -36 6 -36 -33 -43 -27 -4
-47 -16 -65 -37 -25 -29 -26 -36 -26 -150 0 -96 3 -119 14 -119 11 0 15 24 18
115 4 133 10 145 85 152 63 7 112 -14 149 -63 28 -37 29 -40 32 -186 4 -138 5
-148 23 -148 18 0 19 9 19 158 l0 159 -29 40 c-30 42 -87 83 -114 83 -17 0
-27 20 -27 56 0 24 0 24 109 24 104 0 109 -1 115 -22 3 -13 6 -110 6 -215 0
-106 4 -193 8 -193 9 0 22 198 22 343 l0 87 45 0 45 0 0 -190 c0 -210 5 -234
59 -284 24 -23 31 -38 31 -69 0 -82 44 -111 158 -105 69 3 76 6 103 36 27 30
29 38 29 118 l0 85 -50 53 c-27 29 -50 58 -50 64 0 8 24 12 69 12 65 0 72 -2
119 -39 45 -36 50 -43 55 -93 4 -29 7 -90 7 -135 0 -78 1 -82 31 -107 37 -32
68 -33 104 -4 l28 21 -4 401 -4 401 41 3 c25 2 45 -2 52 -10 15 -19 18 -116 4
-130 -7 -7 -12 -44 -12 -90 0 -107 22 -148 80 -148 11 0 28 -10 40 -22 l20
-22 30 22 c25 19 42 22 119 22 l90 0 62 50 c53 43 69 50 106 50 23 0 43 -4 43
-9 0 -5 -32 -38 -70 -72 l-70 -62 2 -211 c3 -192 5 -211 21 -214 16 -3 17 12
17 204 l0 207 68 71 67 71 160 5 c136 4 160 7 163 21 3 14 -24 17 -227 23
-251 8 -248 8 -314 -50 -37 -34 -38 -34 -132 -34 -52 0 -98 1 -102 3 -22 7 6
51 80 124 l82 82 6 96 c8 131 16 139 141 141 86 2 93 4 96 23 3 20 -1 21 -101
21 -92 0 -108 -3 -132 -22 -39 -31 -55 -77 -55 -161 l0 -74 -85 -81 c-78 -75
-85 -84 -85 -120 0 -37 -1 -39 -27 -34 -38 7 -43 17 -43 96 0 58 4 72 25 98
24 28 33 76 18 92 -4 3 -13 -4 -20 -16 -12 -22 -12 -22 -13 10 0 35 -15 72
-34 84 -6 4 -45 8 -86 8 l-75 0 3 -160 c4 -176 4 -176 -55 -140 l-32 19 -3
107 c-2 75 -7 109 -15 112 -10 3 -13 -23 -13 -108 0 -112 0 -112 30 -140 17
-16 44 -34 59 -41 l29 -13 7 -212 c8 -241 6 -264 -30 -264 -44 0 -55 32 -55
162 0 117 0 117 -31 153 -61 69 -82 78 -175 76 l-84 -1 0 194 0 195 48 58 c27
32 54 68 60 80 9 15 12 140 12 438 l0 416 -25 24 c-28 29 -66 31 -190 9z"/>
<path d="M2685 4095 c-16 -9 -41 -26 -53 -38 -51 -47 -52 -56 -52 -375 l0
-300 29 -31 c28 -30 31 -31 121 -31 88 0 93 1 121 29 l29 29 0 206 0 206 129
0 c100 0 131 3 141 15 24 29 0 35 -140 35 -113 0 -142 -3 -154 -16 -14 -13
-16 -47 -16 -212 0 -245 1 -242 -103 -242 -78 0 -88 4 -106 37 -18 35 -15 556
3 592 31 59 92 82 191 70 182 -22 353 -70 514 -145 103 -48 111 -50 111 -31 0
18 -169 98 -289 137 -195 63 -422 94 -476 65z"/>
<path d="M2048 4070 c-110 -23 -183 -47 -198 -65 -17 -20 -217 -125 -239 -125
-22 0 -100 -55 -108 -76 -11 -29 7 -27 46 4 22 18 47 32 55 32 18 0 228 111
266 140 31 25 200 70 271 73 l54 2 3 -110 c4 -157 22 -160 22 -4 0 84 -4 129
-12 137 -16 16 -56 14 -160 -8z"/>
<path d="M1870 3854 c-223 -69 -221 -67 -218 -287 4 -211 21 -208 28 4 6 196
-5 182 194 239 164 48 186 49 226 13 l31 -28 6 -242 c3 -134 9 -243 14 -243
16 0 19 42 19 264 0 221 -1 235 -21 260 -52 66 -114 70 -279 20z"/>
<path d="M2750 3687 c0 -120 -4 -187 -11 -194 -20 -20 0 -53 31 -53 40 0 54
44 21 66 -20 14 -21 23 -21 190 0 109 -4 174 -10 174 -6 0 -10 -68 -10 -183z"/>
<path d="M3201 3826 c-13 -16 -4 -46 13 -46 13 0 36 20 36 32 0 4 -9 12 -19
17 -14 8 -22 7 -30 -3z"/>
<path d="M3525 3830 c-4 -7 -3 -15 1 -19 5 -4 53 -43 107 -86 97 -77 186 -170
280 -292 27 -35 52 -63 58 -63 55 0 -175 269 -343 402 -90 71 -94 73 -103 58z"/>
<path d="M1407 3685 c-21 -20 -46 -35 -60 -35 -31 0 -57 -29 -57 -66 0 -16 -9
-40 -20 -54 -19 -25 -27 -60 -12 -60 4 0 20 16 35 35 20 25 36 35 56 35 38 0
54 22 49 65 -2 19 -1 35 3 35 12 0 59 69 50 74 -4 3 -24 -10 -44 -29z m-47
-90 c0 -8 -7 -15 -15 -15 -16 0 -20 12 -8 23 11 12 23 8 23 -8z"/>
<path d="M1735 3710 c-13 -21 8 -30 71 -30 l64 0 0 -151 c0 -97 4 -148 10
-144 6 4 10 65 10 151 l0 144 39 0 c73 0 71 4 71 -155 0 -86 4 -146 10 -150 6
-4 7 -13 1 -23 -10 -21 -4 -42 14 -42 10 0 13 40 14 186 1 162 -1 189 -15 205
-15 17 -33 19 -150 19 -78 0 -135 -4 -139 -10z"/>
<path d="M3015 3699 c-46 -13 -55 -34 -55 -127 0 -69 -4 -88 -20 -109 -15 -19
-20 -41 -20 -82 0 -38 -6 -66 -20 -89 -11 -18 -20 -49 -20 -68 0 -20 -7 -51
-16 -69 -8 -19 -14 -44 -12 -56 3 -22 3 -22 36 5 29 25 32 33 32 80 0 43 5 57
25 76 22 20 25 32 25 90 0 38 5 71 12 78 8 8 65 12 189 12 210 0 209 1 209
-93 0 -68 27 -136 63 -160 15 -9 57 -16 117 -18 91 -4 95 -3 98 17 3 20 -2 22
-89 26 -85 4 -94 6 -115 32 -20 22 -24 38 -24 92 0 85 -18 128 -60 143 -20 6
-102 11 -201 11 l-169 0 0 66 c0 108 -7 104 190 104 l169 0 71 -60 c38 -33 75
-71 82 -83 7 -12 15 -65 18 -117 4 -82 7 -95 23 -95 9 0 17 3 17 8 0 4 0 53 0
110 l0 102 -88 86 c-84 82 -91 86 -143 92 -77 10 -288 7 -324 -4z"/>
<path d="M1559 3603 c-28 -30 -121 -146 -160 -198 -4 -5 -10 -45 -14 -87 -6
-66 -5 -78 8 -78 20 0 27 21 27 85 0 46 5 59 35 97 19 24 49 63 66 88 18 25
45 60 61 78 51 60 31 73 -23 15z"/>
<path d="M1156 3320 c-69 -153 -96 -273 -96 -423 0 -96 -2 -104 -30 -147 -29
-44 -30 -48 -30 -168 l0 -124 34 -34 34 -34 399 0 c232 0 412 -4 433 -10 18
-5 52 -27 74 -48 86 -81 87 -82 209 -82 l110 0 64 63 63 64 0 107 c0 87 -3
108 -15 113 -9 3 -18 3 -22 0 -3 -4 -5 -49 -4 -102 l2 -95 -47 -50 -47 -50
-102 0 -103 0 -72 65 c-40 36 -79 65 -87 65 -10 0 -12 8 -8 33 5 24 2 37 -9
46 -23 19 -39 3 -33 -34 5 -32 4 -33 -36 -39 -23 -3 -94 -3 -157 -1 l-115 4
-30 35 c-16 19 -37 44 -45 56 -10 14 -21 19 -32 15 -27 -11 -21 -42 12 -66 65
-49 58 -51 -179 -47 -275 4 -261 -4 -261 148 0 104 1 108 33 156 31 48 32 51
35 179 3 149 22 241 76 366 33 76 37 99 17 99 -5 0 -20 -27 -35 -60z"/>
<path d="M3600 3368 c0 -7 46 -56 102 -108 l102 -95 135 -5 c141 -6 161 -4
161 11 0 20 -56 29 -171 29 l-119 0 -96 90 c-94 89 -114 102 -114 78z"/>
<path d="M1043 3358 c-24 -30 -82 -158 -106 -234 -28 -88 -52 -211 -62 -314
-3 -36 -14 -80 -23 -98 -14 -26 -14 -35 -4 -50 51 -70 52 -75 52 -175 0 -113
14 -154 64 -190 30 -21 43 -22 306 -28 151 -4 341 -7 423 -8 l147 -1 81 -76
c45 -41 92 -80 106 -85 49 -18 141 -11 191 16 26 14 54 25 64 25 9 0 42 -22
73 -49 53 -46 112 -71 170 -71 7 0 27 -19 44 -42 l31 -42 0 -167 0 -168 -29
-20 c-54 -38 -65 -80 -57 -215 7 -144 20 -173 99 -234 l57 -43 0 -205 c0 -175
2 -204 15 -204 13 0 15 27 15 183 0 100 4 188 9 195 7 12 13 11 37 -1 53 -28
83 -72 137 -197 30 -68 59 -126 65 -128 29 -9 20 37 -29 155 -59 140 -88 177
-172 219 -81 41 -157 102 -173 140 -9 21 -14 71 -14 138 l0 105 46 52 45 51
-3 183 -3 184 -32 33 c-31 32 -32 34 -13 46 28 17 35 16 75 -19 l35 -31 0
-172 c0 -171 5 -216 21 -216 5 0 9 91 9 201 l0 202 -44 40 c-39 35 -43 42 -35
64 34 89 -30 183 -124 183 -85 0 -132 -55 -125 -146 l5 -54 -48 45 c-41 38
-54 45 -89 45 -22 0 -58 -9 -80 -20 -25 -13 -59 -20 -93 -20 -61 0 -74 7 -173
101 -34 32 -72 60 -85 63 -13 3 -204 7 -424 8 -364 3 -403 5 -428 21 -50 32
-60 61 -66 177 -5 94 -9 112 -28 132 -26 28 -29 55 -8 82 9 12 15 42 15 77 0
131 54 338 125 480 22 43 33 75 27 81 -5 5 -13 4 -19 -4z m1541 -1139 c33 -26
37 -88 6 -119 -45 -45 -130 -6 -130 60 0 38 39 80 73 80 13 0 36 -9 51 -21z"/>
<path d="M1735 3330 c-3 -6 -52 -10 -110 -10 -94 0 -105 -2 -115 -20 -21 -39
24 -58 48 -20 10 17 23 20 87 20 41 0 75 -4 75 -9 0 -13 27 -21 45 -15 20 8
19 50 -1 58 -21 8 -22 8 -29 -4z"/>
<path d="M1300 3285 c-17 -21 -5 -45 24 -45 28 0 37 17 24 43 -11 21 -31 22
-48 2z"/>
<path d="M4130 3243 c0 -4 15 -45 33 -90 30 -77 48 -97 55 -61 5 24 -59 158
-74 158 -8 0 -14 -3 -14 -7z"/>
<path d="M3183 3215 c-27 -20 -9 -45 32 -45 30 0 35 3 35 24 0 28 -40 41 -67
21z"/>
<path d="M3183 3048 c-47 -41 -52 -48 -46 -65 6 -14 43 -18 43 -4 0 4 12 20
26 35 l27 26 412 0 c439 0 442 0 433 -47 -3 -16 -17 -19 -111 -23 -107 -5
-109 -6 -135 -36 -15 -18 -49 -57 -75 -88 l-48 -56 -128 0 -128 0 -67 -70 -68
-70 4 -71 c5 -99 19 -109 145 -109 l94 0 -3 -42 -3 -43 -80 -3 c-49 -2 -88 2
-103 9 -19 11 -25 10 -39 -3 -25 -26 -9 -52 28 -44 18 3 69 6 114 6 64 0 88 4
105 18 23 19 37 83 26 126 -6 25 -8 25 -119 28 l-112 3 -8 60 -9 59 60 58 60
58 119 0 118 0 80 80 80 80 102 0 c133 0 131 3 144 -197 5 -81 12 -173 15
-204 6 -54 5 -56 -39 -108 -25 -29 -55 -60 -66 -68 -24 -16 -28 -43 -8 -43 19
0 134 122 147 155 5 14 7 37 4 51 -6 24 -6 24 27 10 44 -18 63 -55 54 -108 -6
-32 -22 -56 -82 -119 l-76 -79 -178 0 c-97 0 -184 -3 -193 -6 -19 -7 -21 -34
-3 -34 109 -4 374 3 387 10 10 5 53 48 96 95 76 84 78 88 82 144 5 73 -5 93
-68 127 -30 16 -52 36 -55 48 -2 12 -6 82 -7 156 -3 118 -6 140 -25 172 -15
26 -20 47 -17 70 4 24 0 40 -16 61 l-21 27 -429 0 -429 0 -38 -32z"/>
<path d="M2363 3054 c-8 -22 10 -49 32 -49 10 0 22 7 28 16 15 24 1 49 -28 49
-15 0 -28 -7 -32 -16z"/>
<path d="M2312 2988 c-16 -16 -15 -34 4 -63 9 -13 15 -39 13 -57 -3 -54 0 -80
11 -73 6 3 10 35 10 70 0 35 5 67 10 70 16 10 12 52 -6 59 -22 8 -28 8 -42 -6z"/>
<path d="M1304 2977 c-2 -7 -3 -118 -2 -247 3 -201 5 -235 18 -235 13 0 15 35
18 241 2 211 0 242 -13 248 -9 3 -18 0 -21 -7z"/>
<path d="M4255 2953 c25 -98 55 -242 55 -265 0 -35 17 -78 30 -78 13 0 12 39
-4 130 -24 131 -57 240 -73 240 -12 0 -13 -7 -8 -27z"/>
<path d="M3684 2945 c-8 -19 3 -35 26 -35 19 0 30 17 23 38 -6 17 -42 15 -49
-3z"/>
<path d="M3967 2883 c-13 -12 -7 -44 8 -49 12 -5 15 -26 15 -101 0 -80 8 -136
36 -240 2 -7 13 -13 25 -13 18 0 20 4 16 28 -3 15 -12 45 -21 67 -10 28 -15
76 -16 161 0 104 -3 123 -18 137 -20 18 -34 21 -45 10z"/>
<path d="M3900 2576 l0 -225 -31 -36 c-30 -34 -33 -35 -107 -35 l-75 0 71 74
72 74 0 141 c0 121 -2 143 -16 148 -28 10 -34 -19 -27 -133 3 -61 3 -124 -1
-139 -4 -16 -37 -59 -73 -97 l-66 -68 -267 0 c-335 0 -310 -15 -310 184 0 194
-14 215 -143 216 -77 0 -80 -1 -113 -34 -19 -19 -34 -44 -34 -57 -5 -651 -10
-1065 -15 -1179 -6 -166 2 -197 65 -237 78 -49 87 -61 124 -160 59 -161 94
-238 109 -241 26 -5 28 15 6 65 -11 26 -41 101 -65 165 -54 145 -58 151 -114
182 -81 44 -85 52 -88 193 l-4 125 23 -16 c13 -9 43 -16 66 -16 40 0 50 6 141
88 53 49 104 97 112 107 12 14 16 61 20 224 l5 206 30 0 30 0 1 -165 c1 -132
4 -165 15 -165 11 0 15 34 17 169 l2 169 36 -6 c80 -13 94 -50 94 -255 l0
-159 -30 -38 c-29 -37 -46 -73 -37 -81 2 -2 26 21 53 53 l49 57 0 186 c0 175
-1 187 -23 221 -34 56 -75 70 -187 68 -107 -2 -112 1 -227 110 l-58 54 0 104
c0 97 2 106 23 123 21 18 21 20 4 37 -16 16 -19 16 -45 1 -34 -21 -39 -46 -32
-180 l5 -106 68 -70 67 -70 0 -219 c0 -218 0 -219 -25 -253 -30 -41 -24 -51
13 -23 48 36 52 53 52 271 0 111 3 202 8 202 4 0 18 -7 30 -16 21 -15 22 -20
22 -211 l0 -197 -82 -79 c-86 -81 -133 -117 -156 -117 -7 0 -24 11 -37 25
l-25 24 0 511 0 511 25 24 c20 21 34 25 80 25 90 0 95 -10 95 -181 l0 -141 39
-39 39 -39 356 0 c395 0 398 0 454 64 l32 37 -2 232 c-3 212 -5 232 -20 235
-17 3 -18 -13 -18 -222z"/>
<path d="M3463 2658 c3 -10 36 -13 122 -13 86 0 119 3 123 13 3 9 -26 12 -123
12 -97 0 -126 -3 -122 -12z"/>
<path d="M1564 2606 c-11 -28 1 -51 25 -51 32 0 49 28 32 49 -17 20 -50 21
-57 2z"/>
<path d="M1096 2541 c-16 -25 7 -38 77 -44 77 -7 106 5 94 37 -5 13 -23 16
-86 16 -44 0 -82 -4 -85 -9z"/>
<path d="M4336 2371 c-3 -4 0 -50 6 -102 25 -210 -33 -507 -142 -730 -79 -164
-211 -325 -350 -431 -135 -103 -336 -182 -527 -208 -119 -16 -142 -8 -178 63
-32 65 -32 95 -1 107 33 12 46 39 46 96 0 47 2 50 78 122 42 40 97 87 121 103
43 28 50 29 153 29 89 0 108 3 108 15 0 17 -2 17 -139 15 -52 -1 -103 -6 -113
-11 -24 -13 -198 -165 -220 -193 -11 -13 -18 -39 -18 -66 -1 -80 -32 -93 -63
-27 -23 47 -24 254 -3 296 24 45 34 48 136 40 52 -4 105 -3 119 2 13 5 54 39
92 76 60 58 69 71 69 102 0 52 23 81 65 81 32 0 54 14 41 27 -3 4 -23 6 -43 5
-52 -2 -93 -47 -93 -101 0 -35 -7 -45 -65 -100 l-66 -61 -96 0 -97 0 85 87
c119 122 82 117 -49 -7 -147 -140 -144 -133 -146 -293 -1 -119 1 -136 21 -169
17 -30 21 -47 16 -90 -9 -95 52 -198 130 -219 76 -20 282 13 422 68 381 150
648 495 751 973 26 118 27 417 2 473 -16 35 -40 48 -52 28z"/>
<path d="M773 2237 c-15 -22 -23 -48 -23 -76 0 -24 -6 -49 -15 -57 -22 -23
-19 -39 17 -79 31 -36 31 -37 15 -65 -24 -39 -22 -45 24 -95 41 -45 45 -59 25
-106 -10 -22 50 -87 66 -71 9 9 7 17 -6 31 -14 15 -16 29 -11 59 6 35 2 43
-34 88 -45 54 -47 60 -26 88 21 27 19 40 -11 76 -19 22 -24 34 -16 42 6 6 8
32 5 63 -5 44 -2 59 16 83 11 17 21 35 21 41 0 22 -26 10 -47 -22z"/>
<path d="M1070 2161 l0 -70 83 -85 82 -86 196 0 196 0 27 -26 c26 -26 26 -29
26 -161 0 -164 4 -174 113 -289 105 -111 115 -114 385 -114 l204 0 34 34 34
34 0 240 0 240 -32 43 c-18 23 -55 61 -82 83 l-48 41 -461 0 c-432 0 -462 -1
-465 -17 -3 -17 23 -18 433 -18 499 0 472 4 556 -88 l50 -55 -3 -229 c-4 -293
18 -268 -237 -268 -102 0 -203 5 -224 11 -44 12 -85 46 -159 131 l-53 61 -5
152 c-5 136 -8 154 -29 183 -12 18 -32 34 -44 37 -12 3 -107 7 -210 8 l-188 3
-65 65 c-77 75 -98 111 -91 153 5 35 0 56 -14 56 -5 0 -9 -31 -9 -69z"/>
<path d="M3420 2181 c0 -10 102 -105 139 -130 20 -13 51 -16 151 -16 124 0
127 0 160 28 34 29 34 29 134 22 117 -8 136 -19 136 -75 0 -36 22 -61 35 -41
12 21 -14 106 -40 128 -24 21 -36 23 -134 23 -99 0 -110 -2 -141 -25 -32 -23
-42 -25 -155 -25 -133 0 -131 -1 -219 77 -47 42 -66 52 -66 34z"/>
<path d="M1510 2155 c0 -32 28 -45 45 -22 17 24 256 25 275 2 14 -17 130 -22
130 -5 0 6 -22 10 -48 10 -36 0 -54 5 -67 20 -17 18 -31 20 -177 20 l-158 0 0
-25z"/>
<path d="M995 2110 c-4 -6 0 -19 9 -29 10 -11 16 -36 16 -70 0 -51 2 -55 59
-114 l60 -62 192 -3 c148 -3 194 -1 200 9 4 7 5 17 3 21 -3 4 -92 8 -198 8
l-192 0 -44 45 c-42 43 -45 50 -50 112 -4 53 -9 68 -27 80 -15 10 -23 11 -28
3z"/>
<path d="M2883 2104 c-3 -9 0 -26 6 -37 9 -14 12 -53 10 -130 -3 -93 -1 -111
12 -120 36 -23 74 20 45 52 -13 14 -16 40 -16 128 0 92 -3 112 -16 117 -25 10
-34 7 -41 -10z"/>
<path d="M1292 2051 c-21 -13 -10 -46 16 -49 20 -3 23 0 20 24 -3 30 -16 38
-36 25z"/>
<path d="M914 2002 c-8 -5 -9 -34 -5 -91 l7 -84 56 -52 c40 -37 67 -54 94 -58
22 -4 145 -7 275 -7 183 0 239 -3 247 -13 6 -7 11 -34 10 -60 -1 -67 47 -158
129 -246 113 -123 175 -143 463 -145 269 -1 244 29 248 -306 2 -219 5 -260 17
-260 13 0 15 40 15 268 -1 351 14 332 -252 332 -285 0 -361 22 -465 133 -81
88 -116 155 -115 225 0 48 -3 59 -28 84 l-28 28 -257 0 c-287 0 -301 3 -356
69 -29 34 -30 40 -27 110 3 72 -4 90 -28 73z"/>
<path d="M3485 1970 c-17 -27 13 -31 255 -28 l248 3 27 -25 c46 -42 55 -79 62
-246 4 -111 9 -152 17 -144 7 7 10 64 8 168 -4 177 -16 215 -81 259 -33 22
-40 23 -282 23 -154 0 -250 -4 -254 -10z"/>
<path d="M1830 1930 c0 -6 30 -10 69 -10 39 0 73 -4 76 -10 4 -6 57 -10 126
-10 78 0 118 4 114 10 -4 6 -53 10 -115 10 -62 0 -111 4 -115 10 -3 6 -40 10
-81 10 -43 0 -74 -4 -74 -10z"/>
<path d="M3874 1871 c-2 -2 -4 -13 -4 -23 0 -12 7 -18 24 -18 23 0 25 -4 30
-72 3 -40 8 -96 11 -125 7 -50 6 -53 -36 -98 -28 -30 -39 -49 -32 -56 6 -6 27
9 62 46 52 55 53 57 46 103 -3 26 -9 92 -13 146 l-7 99 -38 1 c-21 1 -41 -1
-43 -3z"/>
<path d="M1815 1795 c-23 -22 -25 -32 -25 -107 0 -83 0 -83 41 -130 l41 -48
111 1 c122 1 107 16 -18 18 -68 1 -72 2 -108 39 -36 37 -37 40 -37 113 0 90
14 109 76 109 53 0 64 -14 64 -76 0 -36 6 -59 19 -75 19 -23 24 -24 163 -24
120 0 143 2 143 15 0 12 -23 15 -134 18 -79 1 -140 7 -148 14 -7 6 -13 31 -13
58 0 33 -6 55 -21 74 -18 22 -28 26 -75 26 -45 0 -59 -4 -79 -25z"/>
<path d="M2148 1789 c-40 -23 -6 -89 36 -73 26 10 32 55 11 71 -22 15 -25 16
-47 2z"/>
<path d="M3693 1783 c-35 -7 -27 -23 10 -23 24 0 49 -12 92 -45 43 -34 61 -43
69 -34 8 8 4 15 -14 27 -13 10 -38 29 -55 44 -33 28 -66 38 -102 31z"/>
<path d="M3570 1600 c0 -16 26 -40 44 -40 11 0 6 36 -6 48 -18 18 -38 14 -38
-8z"/>
<path d="M2122 1528 c2 -13 10 -23 18 -23 8 0 16 10 18 23 3 17 -2 22 -18 22
-16 0 -21 -5 -18 -22z"/>
<path d="M3747 1473 c-4 -3 -7 -24 -7 -45 0 -90 -55 -129 -210 -150 -127 -16
-132 -22 -128 -140 2 -59 7 -93 15 -95 6 -2 13 6 15 19 3 20 11 24 63 30 41 5
65 14 76 27 10 12 32 21 55 23 23 2 39 8 39 16 0 6 -3 12 -7 12 -5 0 -30 0
-58 0 -42 0 -50 -3 -50 -19 0 -19 -34 -31 -91 -31 -28 0 -29 2 -29 49 0 28 5
53 12 57 6 4 51 13 100 20 158 24 218 65 228 158 7 68 -1 92 -23 69z"/>
<path d="M2536 1153 c-10 -10 -7 -183 4 -183 5 0 11 -59 13 -142 2 -103 3 -78
5 89 2 210 -2 255 -22 236z"/>
</g>
</svg>